<mxfile host="app.diagrams.net" agent="Mozilla/5.0 (Windows NT 10.0; Win64; x64) AppleWebKit/537.36 (KHTML, like Gecko) Chrome/138.0.0.0 Safari/537.36" version="28.0.7">
  <diagram id="1zercEIOL6QZpWdyG2-A" name="Page-1">
    <mxGraphModel dx="1892" dy="1662" grid="1" gridSize="10" guides="1" tooltips="1" connect="1" arrows="1" fold="1" page="1" pageScale="1" pageWidth="850" pageHeight="1100" math="0" shadow="0">
      <root>
        <mxCell id="0" />
        <mxCell id="1" parent="0" />
        <mxCell id="ymfXzkdqA7JAblpzAdkv-1" value="" style="rounded=0;whiteSpace=wrap;html=1;dashed=1;" parent="1" vertex="1">
          <mxGeometry x="-100" y="110" width="120" height="420" as="geometry" />
        </mxCell>
        <mxCell id="ymfXzkdqA7JAblpzAdkv-2" value="&lt;font style=&quot;font-size: 24px;&quot;&gt;Sources&lt;/font&gt;" style="rounded=1;whiteSpace=wrap;html=1;dashed=1;strokeColor=none;" parent="1" vertex="1">
          <mxGeometry x="-85" y="80" width="90" height="50" as="geometry" />
        </mxCell>
        <mxCell id="ymfXzkdqA7JAblpzAdkv-17" style="edgeStyle=orthogonalEdgeStyle;rounded=0;orthogonalLoop=1;jettySize=auto;html=1;entryX=0;entryY=0.25;entryDx=0;entryDy=0;" parent="1" source="ymfXzkdqA7JAblpzAdkv-3" target="ymfXzkdqA7JAblpzAdkv-5" edge="1">
          <mxGeometry relative="1" as="geometry" />
        </mxCell>
        <mxCell id="ymfXzkdqA7JAblpzAdkv-3" value="CRM" style="image;aspect=fixed;html=1;points=[];align=center;fontSize=12;image=img/lib/azure2/general/Folder_Blank.svg;" parent="1" vertex="1">
          <mxGeometry x="-74.5" y="224" width="69" height="56.00000000000001" as="geometry" />
        </mxCell>
        <mxCell id="ymfXzkdqA7JAblpzAdkv-4" value="ERP" style="image;aspect=fixed;html=1;points=[];align=center;fontSize=12;image=img/lib/azure2/general/Folder_Blank.svg;" parent="1" vertex="1">
          <mxGeometry x="-74.5" y="394" width="69" height="56.00000000000001" as="geometry" />
        </mxCell>
        <mxCell id="ymfXzkdqA7JAblpzAdkv-5" value="" style="rounded=1;whiteSpace=wrap;html=1;" parent="1" vertex="1">
          <mxGeometry x="60" y="160" width="170" height="380" as="geometry" />
        </mxCell>
        <mxCell id="ymfXzkdqA7JAblpzAdkv-7" value="Bronze Layer" style="rounded=0;whiteSpace=wrap;html=1;fillStyle=auto;fillColor=#fa6800;fontColor=#000000;strokeColor=#C73500;" parent="1" vertex="1">
          <mxGeometry x="70" y="110" width="140" height="40" as="geometry" />
        </mxCell>
        <mxCell id="ymfXzkdqA7JAblpzAdkv-8" value="crm_cust_info" style="rounded=0;whiteSpace=wrap;html=1;fillStyle=auto;fillColor=#fa6800;fontColor=#000000;strokeColor=#C73500;" parent="1" vertex="1">
          <mxGeometry x="70" y="184" width="140" height="40" as="geometry" />
        </mxCell>
        <mxCell id="ymfXzkdqA7JAblpzAdkv-9" value="crm_prd_info" style="rounded=0;whiteSpace=wrap;html=1;fillStyle=auto;fillColor=#fa6800;fontColor=#000000;strokeColor=#C73500;" parent="1" vertex="1">
          <mxGeometry x="70" y="240" width="140" height="40" as="geometry" />
        </mxCell>
        <mxCell id="ymfXzkdqA7JAblpzAdkv-10" value="crm_sales_details" style="rounded=0;whiteSpace=wrap;html=1;fillStyle=auto;fillColor=#fa6800;fontColor=#000000;strokeColor=#C73500;" parent="1" vertex="1">
          <mxGeometry x="70" y="290" width="140" height="40" as="geometry" />
        </mxCell>
        <mxCell id="ymfXzkdqA7JAblpzAdkv-11" value="erp_loc_a101" style="rounded=0;whiteSpace=wrap;html=1;fillStyle=auto;fillColor=#fa6800;fontColor=#000000;strokeColor=#C73500;" parent="1" vertex="1">
          <mxGeometry x="70" y="410" width="140" height="40" as="geometry" />
        </mxCell>
        <mxCell id="ymfXzkdqA7JAblpzAdkv-12" value="erp_px_cat_g1v2" style="rounded=0;whiteSpace=wrap;html=1;fillStyle=auto;fillColor=#fa6800;fontColor=#000000;strokeColor=#C73500;" parent="1" vertex="1">
          <mxGeometry x="70" y="460" width="140" height="40" as="geometry" />
        </mxCell>
        <mxCell id="ymfXzkdqA7JAblpzAdkv-13" value="erp_cust_az12" style="rounded=0;whiteSpace=wrap;html=1;fillStyle=auto;fillColor=#fa6800;fontColor=#000000;strokeColor=#C73500;" parent="1" vertex="1">
          <mxGeometry x="70" y="358" width="140" height="40" as="geometry" />
        </mxCell>
        <mxCell id="ymfXzkdqA7JAblpzAdkv-18" style="edgeStyle=orthogonalEdgeStyle;rounded=0;orthogonalLoop=1;jettySize=auto;html=1;entryX=-0.011;entryY=0.123;entryDx=0;entryDy=0;entryPerimeter=0;" parent="1" source="ymfXzkdqA7JAblpzAdkv-3" target="ymfXzkdqA7JAblpzAdkv-5" edge="1">
          <mxGeometry relative="1" as="geometry" />
        </mxCell>
        <mxCell id="ymfXzkdqA7JAblpzAdkv-19" style="edgeStyle=orthogonalEdgeStyle;rounded=0;orthogonalLoop=1;jettySize=auto;html=1;entryX=0;entryY=0.395;entryDx=0;entryDy=0;entryPerimeter=0;" parent="1" source="ymfXzkdqA7JAblpzAdkv-3" target="ymfXzkdqA7JAblpzAdkv-5" edge="1">
          <mxGeometry relative="1" as="geometry" />
        </mxCell>
        <mxCell id="ymfXzkdqA7JAblpzAdkv-20" style="edgeStyle=orthogonalEdgeStyle;rounded=0;orthogonalLoop=1;jettySize=auto;html=1;entryX=0.011;entryY=0.573;entryDx=0;entryDy=0;entryPerimeter=0;" parent="1" source="ymfXzkdqA7JAblpzAdkv-4" target="ymfXzkdqA7JAblpzAdkv-5" edge="1">
          <mxGeometry relative="1" as="geometry" />
        </mxCell>
        <mxCell id="ymfXzkdqA7JAblpzAdkv-21" style="edgeStyle=orthogonalEdgeStyle;rounded=0;orthogonalLoop=1;jettySize=auto;html=1;entryX=0.006;entryY=0.714;entryDx=0;entryDy=0;entryPerimeter=0;" parent="1" source="ymfXzkdqA7JAblpzAdkv-4" target="ymfXzkdqA7JAblpzAdkv-5" edge="1">
          <mxGeometry relative="1" as="geometry" />
        </mxCell>
        <mxCell id="ymfXzkdqA7JAblpzAdkv-23" style="edgeStyle=orthogonalEdgeStyle;rounded=0;orthogonalLoop=1;jettySize=auto;html=1;entryX=-0.011;entryY=0.862;entryDx=0;entryDy=0;entryPerimeter=0;" parent="1" source="ymfXzkdqA7JAblpzAdkv-4" target="ymfXzkdqA7JAblpzAdkv-5" edge="1">
          <mxGeometry relative="1" as="geometry" />
        </mxCell>
        <mxCell id="XKSX6-blO9Au0o_bq2PY-1" value="" style="rounded=1;whiteSpace=wrap;html=1;" vertex="1" parent="1">
          <mxGeometry x="280" y="155" width="170" height="380" as="geometry" />
        </mxCell>
        <mxCell id="XKSX6-blO9Au0o_bq2PY-2" value="Silver Layer" style="rounded=0;whiteSpace=wrap;html=1;fillStyle=auto;fillColor=light-dark(#FAD7AC,#B3B3B3);strokeColor=#b46504;" vertex="1" parent="1">
          <mxGeometry x="290" y="105" width="140" height="40" as="geometry" />
        </mxCell>
        <mxCell id="XKSX6-blO9Au0o_bq2PY-3" value="crm_cust_info" style="rounded=0;whiteSpace=wrap;html=1;fillStyle=auto;fillColor=light-dark(#FAD7AC,#B3B3B3);fontColor=#000000;strokeColor=#C73500;" vertex="1" parent="1">
          <mxGeometry x="290" y="179" width="140" height="40" as="geometry" />
        </mxCell>
        <mxCell id="XKSX6-blO9Au0o_bq2PY-4" value="crm_prd_info" style="rounded=0;whiteSpace=wrap;html=1;fillStyle=auto;fillColor=light-dark(#FAD7AC,#B3B3B3);fontColor=#000000;strokeColor=#C73500;" vertex="1" parent="1">
          <mxGeometry x="290" y="235" width="140" height="40" as="geometry" />
        </mxCell>
        <mxCell id="XKSX6-blO9Au0o_bq2PY-5" value="crm_sales_details" style="rounded=0;whiteSpace=wrap;html=1;fillStyle=auto;fillColor=light-dark(#FAD7AC,#B3B3B3);fontColor=#000000;strokeColor=#C73500;" vertex="1" parent="1">
          <mxGeometry x="290" y="285" width="140" height="40" as="geometry" />
        </mxCell>
        <mxCell id="XKSX6-blO9Au0o_bq2PY-6" value="erp_loc_a101" style="rounded=0;whiteSpace=wrap;html=1;fillStyle=auto;fillColor=light-dark(#FAD7AC,#B3B3B3);fontColor=#000000;strokeColor=#C73500;" vertex="1" parent="1">
          <mxGeometry x="290" y="405" width="140" height="40" as="geometry" />
        </mxCell>
        <mxCell id="XKSX6-blO9Au0o_bq2PY-7" value="erp_px_cat_g1v2" style="rounded=0;whiteSpace=wrap;html=1;fillStyle=auto;fillColor=light-dark(#FAD7AC,#B3B3B3);fontColor=#000000;strokeColor=#C73500;" vertex="1" parent="1">
          <mxGeometry x="290" y="455" width="140" height="40" as="geometry" />
        </mxCell>
        <mxCell id="XKSX6-blO9Au0o_bq2PY-8" value="erp_cust_az12" style="rounded=0;whiteSpace=wrap;html=1;fillStyle=auto;fillColor=light-dark(#FAD7AC,#B3B3B3);fontColor=#000000;strokeColor=#C73500;" vertex="1" parent="1">
          <mxGeometry x="290" y="353" width="140" height="40" as="geometry" />
        </mxCell>
        <mxCell id="XKSX6-blO9Au0o_bq2PY-9" style="edgeStyle=orthogonalEdgeStyle;rounded=0;orthogonalLoop=1;jettySize=auto;html=1;entryX=0.071;entryY=0.625;entryDx=0;entryDy=0;entryPerimeter=0;" edge="1" parent="1" source="ymfXzkdqA7JAblpzAdkv-8" target="XKSX6-blO9Au0o_bq2PY-3">
          <mxGeometry relative="1" as="geometry" />
        </mxCell>
        <mxCell id="XKSX6-blO9Au0o_bq2PY-16" style="edgeStyle=orthogonalEdgeStyle;rounded=0;orthogonalLoop=1;jettySize=auto;html=1;entryX=0.071;entryY=0.625;entryDx=0;entryDy=0;entryPerimeter=0;" edge="1" parent="1" source="ymfXzkdqA7JAblpzAdkv-9" target="XKSX6-blO9Au0o_bq2PY-4">
          <mxGeometry relative="1" as="geometry" />
        </mxCell>
        <mxCell id="XKSX6-blO9Au0o_bq2PY-17" style="edgeStyle=orthogonalEdgeStyle;rounded=0;orthogonalLoop=1;jettySize=auto;html=1;entryX=0.071;entryY=0.625;entryDx=0;entryDy=0;entryPerimeter=0;" edge="1" parent="1" source="ymfXzkdqA7JAblpzAdkv-10" target="XKSX6-blO9Au0o_bq2PY-5">
          <mxGeometry relative="1" as="geometry" />
        </mxCell>
        <mxCell id="XKSX6-blO9Au0o_bq2PY-18" style="edgeStyle=orthogonalEdgeStyle;rounded=0;orthogonalLoop=1;jettySize=auto;html=1;entryX=0.071;entryY=0.625;entryDx=0;entryDy=0;entryPerimeter=0;" edge="1" parent="1" source="ymfXzkdqA7JAblpzAdkv-13" target="XKSX6-blO9Au0o_bq2PY-8">
          <mxGeometry relative="1" as="geometry" />
        </mxCell>
        <mxCell id="XKSX6-blO9Au0o_bq2PY-19" style="edgeStyle=orthogonalEdgeStyle;rounded=0;orthogonalLoop=1;jettySize=auto;html=1;entryX=0.071;entryY=0.625;entryDx=0;entryDy=0;entryPerimeter=0;" edge="1" parent="1" source="ymfXzkdqA7JAblpzAdkv-11" target="XKSX6-blO9Au0o_bq2PY-6">
          <mxGeometry relative="1" as="geometry" />
        </mxCell>
        <mxCell id="XKSX6-blO9Au0o_bq2PY-20" style="edgeStyle=orthogonalEdgeStyle;rounded=0;orthogonalLoop=1;jettySize=auto;html=1;entryX=0.071;entryY=0.625;entryDx=0;entryDy=0;entryPerimeter=0;" edge="1" parent="1" source="ymfXzkdqA7JAblpzAdkv-12" target="XKSX6-blO9Au0o_bq2PY-7">
          <mxGeometry relative="1" as="geometry" />
        </mxCell>
        <mxCell id="XKSX6-blO9Au0o_bq2PY-21" value="&lt;h1&gt;&lt;font style=&quot;font-size: 40px;&quot;&gt;&lt;b&gt;&lt;i&gt;DATA FLOW DIAGRAM&lt;/i&gt;&lt;/b&gt;&lt;/font&gt;&lt;/h1&gt;" style="text;html=1;align=center;verticalAlign=middle;whiteSpace=wrap;rounded=0;" vertex="1" parent="1">
          <mxGeometry x="-230" y="-40" width="270" height="100" as="geometry" />
        </mxCell>
        <mxCell id="XKSX6-blO9Au0o_bq2PY-22" value="" style="rounded=1;whiteSpace=wrap;html=1;fillColor=light-dark(#A20025,#FFFFCC);strokeColor=#6F0000;fontColor=#ffffff;" vertex="1" parent="1">
          <mxGeometry x="530" y="155" width="170" height="380" as="geometry" />
        </mxCell>
        <mxCell id="XKSX6-blO9Au0o_bq2PY-23" value="Gold Layer" style="rounded=0;whiteSpace=wrap;html=1;fillStyle=auto;fillColor=light-dark(#A20025,#FFFFCC);strokeColor=#6F0000;fontColor=#ffffff;" vertex="1" parent="1">
          <mxGeometry x="545" y="105" width="140" height="40" as="geometry" />
        </mxCell>
        <mxCell id="XKSX6-blO9Au0o_bq2PY-24" value="fact_sales" style="rounded=0;whiteSpace=wrap;html=1;fillStyle=auto;fillColor=light-dark(#A20025,#FFFFCC);strokeColor=#6F0000;fontColor=#ffffff;" vertex="1" parent="1">
          <mxGeometry x="545" y="235" width="140" height="40" as="geometry" />
        </mxCell>
        <mxCell id="XKSX6-blO9Au0o_bq2PY-25" value="dim_customers" style="rounded=0;whiteSpace=wrap;html=1;fillStyle=auto;fillColor=light-dark(#A20025,#FFFFCC);strokeColor=#6F0000;fontColor=#ffffff;" vertex="1" parent="1">
          <mxGeometry x="545" y="290" width="140" height="40" as="geometry" />
        </mxCell>
        <mxCell id="XKSX6-blO9Au0o_bq2PY-26" value="dim_products" style="rounded=0;whiteSpace=wrap;html=1;fillStyle=auto;fillColor=light-dark(#A20025,#FFFFCC);strokeColor=#6F0000;fontColor=#ffffff;" vertex="1" parent="1">
          <mxGeometry x="545" y="394" width="140" height="40" as="geometry" />
        </mxCell>
        <mxCell id="XKSX6-blO9Au0o_bq2PY-30" value="" style="endArrow=classic;html=1;rounded=0;jumpStyle=gap;" edge="1" parent="1">
          <mxGeometry width="50" height="50" relative="1" as="geometry">
            <mxPoint x="430" y="210" as="sourcePoint" />
            <mxPoint x="530" y="240" as="targetPoint" />
            <Array as="points">
              <mxPoint x="470" y="180" />
            </Array>
          </mxGeometry>
        </mxCell>
        <mxCell id="XKSX6-blO9Au0o_bq2PY-31" value="" style="endArrow=classic;html=1;rounded=0;entryX=-0.021;entryY=0.403;entryDx=0;entryDy=0;entryPerimeter=0;jumpStyle=gap;" edge="1" parent="1" target="XKSX6-blO9Au0o_bq2PY-22">
          <mxGeometry width="50" height="50" relative="1" as="geometry">
            <mxPoint x="425" y="260" as="sourcePoint" />
            <mxPoint x="520" y="300" as="targetPoint" />
            <Array as="points">
              <mxPoint x="455" y="250" />
              <mxPoint x="465" y="230" />
            </Array>
          </mxGeometry>
        </mxCell>
        <mxCell id="XKSX6-blO9Au0o_bq2PY-32" value="" style="endArrow=classic;html=1;rounded=0;jumpStyle=gap;" edge="1" parent="1">
          <mxGeometry width="50" height="50" relative="1" as="geometry">
            <mxPoint x="425" y="370.5" as="sourcePoint" />
            <mxPoint x="520" y="320" as="targetPoint" />
            <Array as="points">
              <mxPoint x="455" y="360.5" />
              <mxPoint x="465" y="340.5" />
            </Array>
          </mxGeometry>
        </mxCell>
        <mxCell id="XKSX6-blO9Au0o_bq2PY-33" value="" style="endArrow=classic;html=1;rounded=0;entryX=-0.021;entryY=0.452;entryDx=0;entryDy=0;entryPerimeter=0;jumpStyle=gap;" edge="1" parent="1" target="XKSX6-blO9Au0o_bq2PY-22">
          <mxGeometry width="50" height="50" relative="1" as="geometry">
            <mxPoint x="430" y="425.5" as="sourcePoint" />
            <mxPoint x="550" y="365" as="targetPoint" />
            <Array as="points">
              <mxPoint x="460" y="415.5" />
              <mxPoint x="470" y="395.5" />
            </Array>
          </mxGeometry>
        </mxCell>
        <mxCell id="XKSX6-blO9Au0o_bq2PY-34" value="" style="endArrow=classic;html=1;rounded=0;entryX=0;entryY=0.724;entryDx=0;entryDy=0;entryPerimeter=0;jumpStyle=gap;" edge="1" parent="1" target="XKSX6-blO9Au0o_bq2PY-22">
          <mxGeometry width="50" height="50" relative="1" as="geometry">
            <mxPoint x="434" y="474.25" as="sourcePoint" />
            <mxPoint x="530" y="375.75" as="targetPoint" />
            <Array as="points">
              <mxPoint x="464" y="464.25" />
              <mxPoint x="474" y="444.25" />
            </Array>
          </mxGeometry>
        </mxCell>
        <mxCell id="XKSX6-blO9Au0o_bq2PY-35" value="" style="endArrow=classic;html=1;rounded=0;jumpStyle=gap;" edge="1" parent="1">
          <mxGeometry width="50" height="50" relative="1" as="geometry">
            <mxPoint x="430" y="304.25" as="sourcePoint" />
            <mxPoint x="526" y="420" as="targetPoint" />
            <Array as="points">
              <mxPoint x="460" y="294.25" />
              <mxPoint x="470" y="274.25" />
            </Array>
          </mxGeometry>
        </mxCell>
      </root>
    </mxGraphModel>
  </diagram>
</mxfile>
